<svg width="52" height="52" viewBox="0 0 52 52" fill="none" xmlns="http://www.w3.org/2000/svg">
<path d="M40.625 6.55045C39.3802 6.55045 38.1615 7.03308 37.2222 7.97233L21.125 24.0192L20.7691 24.3751L20.6684 24.8837L19.5504 30.5712L19.0434 32.9567L21.4305 32.4497L27.118 31.3317L27.625 31.231L27.9809 30.8751L44.0277 14.7778C44.7003 14.1036 45.1582 13.2453 45.3437 12.3111C45.5291 11.377 45.4339 10.4089 45.07 9.52882C44.7061 8.64874 44.0898 7.8961 43.2987 7.36578C42.5077 6.83545 41.5773 6.55119 40.625 6.54883V6.55045ZM40.625 9.6997C41.0052 9.6997 41.3806 9.8947 41.743 10.2571C42.4661 10.9818 42.4661 11.7683 41.743 12.4915L26 28.2361L23.2066 28.7951L23.7656 26.0017L39.5086 10.2587C39.8694 9.89795 40.2447 9.70133 40.625 9.70133V9.6997ZM6.5 13.0001V45.5001H39V24.0696L35.75 27.3196V42.2501H9.75V16.2501H24.6805L27.9305 13.0001H6.5Z" fill="#4BA1A7"/>
</svg>
