<svg width="52" height="52" viewBox="0 0 52 52" fill="none" xmlns="http://www.w3.org/2000/svg">
<path d="M26.0342 3.57495L5.81922 23.7266C5.21846 24.332 4.88135 25.1503 4.88135 26.0032C4.88135 26.8561 5.21846 27.6744 5.81922 28.2798L26.0342 48.4249L27.1847 47.2826C33.0981 41.392 36.7153 37.7845 38.8538 35.6476L41.0573 33.4408C41.1964 33.3045 41.3308 33.1636 41.4603 33.0183L41.5871 32.8981L41.5773 32.8851L41.6781 32.7583L46.1696 28.2766C46.7871 27.6688 47.1251 26.8612 47.1251 25.9983C47.1251 25.1371 46.7871 24.3311 46.1728 23.7233C43.4705 21.0258 40.3553 17.901 37.2223 14.7598C33.7123 11.2401 30.1812 7.69758 27.1847 4.71408L26.0326 3.57495H26.0342ZM26.0342 8.16233C28.7642 10.8858 31.8517 13.9798 34.923 17.056C38.0462 20.189 41.1532 23.3041 43.8523 25.9967C41.6521 28.1905 40.1018 29.7375 39.0423 30.8555C38.8392 31.0391 38.6345 31.2422 38.4232 31.4502C38.0592 31.8077 37.7017 32.1522 37.6221 32.227L37.6513 32.2594C33.7822 36.121 29.911 39.9804 26.0375 43.8376L8.11372 26.026L26.0326 8.16233H26.0342ZM26.0342 17.7547L17.7581 26L26.0342 34.2452L34.3152 26L26.0342 17.7547V17.7547ZM26.0342 22.3405L29.71 26L26.0342 29.6595L22.3617 26L26.0342 22.3405V22.3405Z" fill="#4BA1A7"/>
</svg>
