<svg width="50" height="51" viewBox="0 0 50 51" fill="none" xmlns="http://www.w3.org/2000/svg">
<circle cx="25" cy="25.5" r="24.5" fill="#F4F4F0" stroke="#111111"/>
<path d="M21.3186 16.5625C18.4334 16.5625 16.0625 18.9301 16.0625 21.8186V29.1814C16.0625 32.0666 18.4301 34.4375 21.3186 34.4375H28.6814C31.5666 34.4375 33.9375 32.0699 33.9375 29.1814V21.8194C33.9375 18.9334 31.5699 16.5625 28.6814 16.5625H21.3186ZM21.3186 18.1875H28.6814C29.1585 18.1869 29.6309 18.2803 30.0717 18.4626C30.5126 18.6448 30.9131 18.9123 31.2504 19.2496C31.5877 19.5869 31.8552 19.9874 32.0374 20.4283C32.2197 20.8691 32.3131 21.3415 32.3125 21.8186V29.1814C32.3131 29.6585 32.2197 30.1309 32.0374 30.5717C31.8552 31.0126 31.5877 31.4131 31.2504 31.7504C30.9131 32.0877 30.5126 32.3552 30.0717 32.5374C29.6309 32.7197 29.1585 32.8131 28.6814 32.8125H21.3194C20.8423 32.8132 20.3697 32.7198 19.9288 32.5376C19.4879 32.3554 19.0873 32.088 18.7499 31.7507C18.4125 31.4134 18.145 31.0128 17.9627 30.5719C17.7804 30.131 17.6869 29.6585 17.6875 29.1814V21.8194C17.6868 21.3423 17.7802 20.8697 17.9624 20.4288C18.1446 19.9879 18.412 19.5873 18.7493 19.2499C19.0866 18.9125 19.4872 18.645 19.9281 18.4627C20.369 18.2804 20.8415 18.1869 21.3186 18.1875ZM29.7986 19.9652C29.7018 19.9648 29.6059 19.9836 29.5164 20.0204C29.4269 20.0572 29.3456 20.1115 29.2771 20.1799C29.2087 20.2483 29.1545 20.3297 29.1177 20.4192C29.0808 20.5087 29.0621 20.6046 29.0625 20.7014C29.0625 21.1109 29.3891 21.4375 29.7986 21.4375C29.8955 21.438 29.9915 21.4194 30.0811 21.3826C30.1707 21.3458 30.2521 21.2916 30.3206 21.2231C30.3892 21.1547 30.4434 21.0733 30.4803 20.9838C30.5172 20.8942 30.536 20.7982 30.5356 20.7014C30.536 20.6045 30.5172 20.5085 30.4803 20.419C30.4434 20.3294 30.3892 20.2481 30.3206 20.1796C30.2521 20.1112 30.1707 20.057 30.0811 20.0202C29.9915 19.9834 29.8955 19.9647 29.7986 19.9652ZM25 20.625C22.3187 20.625 20.125 22.8187 20.125 25.5C20.125 28.1812 22.3187 30.375 25 30.375C27.6812 30.375 29.875 28.1812 29.875 25.5C29.875 22.8187 27.6812 20.625 25 20.625ZM25 22.25C26.8062 22.25 28.25 23.6938 28.25 25.5C28.25 27.3062 26.8062 28.75 25 28.75C23.1938 28.75 21.75 27.3062 21.75 25.5C21.75 23.6938 23.1938 22.25 25 22.25Z" fill="#111111"/>
</svg>
