<svg width="50" height="51" viewBox="0 0 50 51" fill="none" xmlns="http://www.w3.org/2000/svg">
<circle cx="25" cy="25.5" r="24.5" fill="#F4F4F0" stroke="#111111"/>
<path d="M25 15.75C19.6139 15.75 15.25 20.1139 15.25 25.5C15.25 29.6324 17.8207 33.1586 21.4486 34.5805C21.3624 33.8086 21.2836 32.6256 21.4803 31.7806L22.6226 26.9349C22.6226 26.9349 22.3342 26.3499 22.3342 25.487C22.3342 24.1317 23.1182 23.1194 24.0957 23.1194C24.9269 23.1194 25.3307 23.745 25.3307 24.4941C25.3307 25.3318 24.7969 26.5822 24.5206 27.7409C24.2923 28.7118 25.0098 29.5024 25.9644 29.5024C27.6975 29.5024 29.0308 27.6742 29.0308 25.0369C29.0308 22.7042 27.3546 21.0719 24.9586 21.0719C22.1847 21.0719 20.5564 23.1519 20.5564 25.3034C20.5564 26.1411 20.8806 27.0397 21.2836 27.528C21.3624 27.6231 21.373 27.7092 21.3503 27.8075C21.2595 28.1756 21.1696 28.544 21.0805 28.9125C21.0358 29.0929 20.9375 29.1311 20.7531 29.0425C19.5343 28.477 18.773 26.6968 18.773 25.2644C18.773 22.1899 21.0074 19.3656 25.2161 19.3656C28.5994 19.3656 31.227 21.7739 31.227 24.9987C31.227 28.3567 29.1064 31.0599 26.1676 31.0599C25.1812 31.0599 24.2509 30.5497 23.9332 29.9436C23.9332 29.9436 23.4449 31.8034 23.3238 32.26C23.1053 33.1074 22.5113 34.1677 22.1116 34.8153C23.0471 35.1043 24.0208 35.2508 25 35.25C30.3861 35.25 34.75 30.8861 34.75 25.5C34.75 20.1139 30.3861 15.75 25 15.75Z" fill="#111111"/>
</svg>
