<svg width="361" height="21" viewBox="0 0 361 21" fill="none" xmlns="http://www.w3.org/2000/svg">
<path d="M4.5 8H6.75L6.46875 10.25H4.5V17H1.58203V10.25H0V8H1.58203V6.48828C1.58203 5.50391 1.82812 4.76562 2.32031 4.27344C2.8125 3.75781 3.63281 3.5 4.78125 3.5H6.75V5.75H5.55469C5.10938 5.75 4.81641 5.82031 4.67578 5.96094C4.55859 6.10156 4.5 6.33594 4.5 6.66406V8Z" fill="#4BA1A7"/>
<path d="M89.5938 5.11719C89.1719 5.77344 88.6094 6.35937 87.9062 6.875V7.29688C87.9062 9.75781 87.0156 11.9961 85.2344 14.0117C83.4766 16.0039 81.1328 17 78.2031 17C76.3281 17 74.5938 16.4844 73 15.4531C73.375 15.5 73.6445 15.5234 73.8086 15.5234C75.3789 15.5234 76.7852 15.0312 78.0273 14.0469C77.3008 14.0234 76.6445 13.8008 76.0586 13.3789C75.4727 12.9336 75.0742 12.3711 74.8633 11.6914C75.1445 11.7383 75.3555 11.7617 75.4961 11.7617C75.7305 11.7617 76.0352 11.7148 76.4102 11.6211C75.6367 11.457 74.9805 11.0703 74.4414 10.4609C73.9258 9.82812 73.668 9.10156 73.668 8.28125V8.24609C74.1836 8.52734 74.6992 8.66797 75.2148 8.66797C74.207 8.01172 73.7031 7.0625 73.7031 5.82031C73.7031 5.23437 73.8555 4.67187 74.1602 4.13281C75.9648 6.35937 78.2969 7.54297 81.1562 7.68359C81.1094 7.51953 81.0859 7.26172 81.0859 6.91016C81.0859 5.94922 81.4141 5.14063 82.0703 4.48438C82.7266 3.82812 83.5352 3.5 84.4961 3.5C85.457 3.5 86.2773 3.86328 86.957 4.58984C87.6602 4.47266 88.3867 4.19141 89.1367 3.74609C88.9023 4.56641 88.3984 5.19922 87.625 5.64453C88.3516 5.57422 89.0078 5.39844 89.5938 5.11719Z" fill="#9FAAAB"/>
<path d="M174.41 3.5C174.715 3.5 174.973 3.60547 175.184 3.81641C175.395 4.00391 175.5 4.25 175.5 4.55469V15.8398C175.5 16.1445 175.395 16.4141 175.184 16.6484C174.973 16.8828 174.715 17 174.41 17H163.16C162.855 17 162.586 16.8828 162.352 16.6484C162.117 16.4141 162 16.1445 162 15.8398V4.55469C162 4.25 162.105 4.00391 162.316 3.81641C162.551 3.60547 162.832 3.5 163.16 3.5H174.41ZM166.184 14.75V8.73828H164.25V14.75H166.184ZM164.531 7.54297C164.719 7.73047 164.965 7.82422 165.27 7.82422C165.574 7.82422 165.82 7.73047 166.008 7.54297C166.219 7.33203 166.324 7.08594 166.324 6.80469C166.324 6.5 166.23 6.25391 166.043 6.06641C165.855 5.85547 165.609 5.75 165.305 5.75C165 5.75 164.742 5.85547 164.531 6.06641C164.344 6.25391 164.25 6.5 164.25 6.80469C164.25 7.08594 164.344 7.33203 164.531 7.54297ZM173.25 14.75V11.2344C173.25 10.3672 173.039 9.71094 172.617 9.26562C172.219 8.82031 171.691 8.59766 171.035 8.59766C170.332 8.59766 169.746 8.92578 169.277 9.58203V8.73828H167.344V14.75H169.277V11.3398C169.277 11.1055 169.301 10.9414 169.348 10.8477C169.535 10.3789 169.863 10.1445 170.332 10.1445C170.988 10.1445 171.316 10.5781 171.316 11.4453V14.75H173.25Z" fill="#9FAAAB"/>
<path d="M248.969 5.46875C250.281 4.15625 251.875 3.5 253.75 3.5C255.625 3.5 257.219 4.15625 258.531 5.46875C259.844 6.78125 260.5 8.375 260.5 10.25C260.5 12.125 259.844 13.7188 258.531 15.0312C257.219 16.3438 255.625 17 253.75 17C251.875 17 250.281 16.3438 248.969 15.0312C247.656 13.7188 247 12.125 247 10.25C247 8.375 247.656 6.78125 248.969 5.46875ZM258.039 6.59375C257.453 7.46094 256.457 8.21094 255.051 8.84375C255.191 9.14844 255.344 9.51172 255.508 9.93359C256.82 9.81641 258.109 9.79297 259.375 9.86328C259.305 8.62109 258.859 7.53125 258.039 6.59375ZM253.75 4.625C253.352 4.625 252.895 4.68359 252.379 4.80078C253.082 5.50391 253.809 6.52344 254.559 7.85938C255.824 7.34375 256.75 6.69922 257.336 5.92578C256.281 5.05859 255.086 4.625 253.75 4.625ZM251.219 5.25781C249.719 6.03125 248.746 7.23828 248.301 8.87891H249.18C250.703 8.87891 252.121 8.67969 253.434 8.28125C252.754 7.0625 252.016 6.05469 251.219 5.25781ZM248.125 9.96875V10.25C248.125 11.6797 248.594 12.9219 249.531 13.9766C250.422 12.3125 251.852 11.0703 253.82 10.25C253.938 10.2031 254.102 10.1562 254.312 10.1094C254.172 9.73438 254.055 9.45312 253.961 9.26562C252.555 9.71094 250.938 9.95703 249.109 10.0039C249.016 10.0039 248.852 10.0039 248.617 10.0039C248.383 9.98047 248.219 9.96875 248.125 9.96875ZM253.75 15.875C254.477 15.875 255.145 15.7578 255.754 15.5234C255.637 14.5391 255.461 13.6133 255.227 12.7461C255.133 12.3477 254.945 11.7734 254.664 11.0234C254.383 11.0938 254.184 11.1641 254.066 11.2344C252.309 12.0312 251.055 13.1797 250.305 14.6797C251.336 15.4766 252.484 15.875 253.75 15.875ZM256.773 14.9609C258.32 13.9531 259.176 12.5938 259.34 10.8828C257.957 10.7891 256.797 10.7891 255.859 10.8828C256.117 11.6094 256.258 12.0547 256.281 12.2188C256.492 13.0391 256.656 13.9531 256.773 14.9609Z" fill="#9FAAAB"/>
<path d="M354.895 6.48828C354.965 7.75391 355 9.00781 355 10.25C355 11.4922 354.965 12.7461 354.895 14.0117C354.895 14.8086 354.637 15.4883 354.121 16.0508C353.629 16.5898 353.02 16.8594 352.293 16.8594C350.488 16.9531 348.391 17 346 17C343.609 17 341.512 16.9531 339.707 16.8594C338.98 16.8594 338.359 16.5898 337.844 16.0508C337.352 15.4883 337.105 14.8086 337.105 14.0117C337.035 12.7461 337 11.4922 337 10.25C337 9.42969 337.047 8.17578 337.141 6.48828C337.141 5.69141 337.387 5.02344 337.879 4.48438C338.371 3.92188 338.98 3.64062 339.707 3.64062C341.418 3.54687 343.41 3.5 345.684 3.5H346H346.316C348.59 3.5 350.582 3.54687 352.293 3.64062C353.02 3.64062 353.629 3.92188 354.121 4.48438C354.637 5.02344 354.895 5.69141 354.895 6.48828ZM344.277 13.6953L349.375 10.25L344.277 6.76953V13.6953Z" fill="#9FAAAB"/>
</svg>
