<svg width="50" height="51" viewBox="0 0 50 51" fill="none" xmlns="http://www.w3.org/2000/svg">
<circle cx="25" cy="25.5" r="24.5" fill="#F4F4F0" stroke="#111111"/>
<path d="M34.75 19.4541C34.0199 19.7773 33.2453 19.989 32.4523 20.0822C33.2872 19.5822 33.912 18.796 34.2105 17.8697C33.4253 18.3351 32.5667 18.6637 31.6714 18.8415C31.123 18.2551 30.4108 17.8474 29.6275 17.6712C28.8442 17.4951 28.026 17.5587 27.2793 17.8537C26.5326 18.1488 25.892 18.6617 25.4407 19.3258C24.9894 19.9898 24.7484 20.7743 24.7489 21.5772C24.7489 21.8916 24.7839 22.1963 24.8546 22.488C23.2633 22.4096 21.7064 21.9969 20.2853 21.2766C18.8642 20.5564 17.6108 19.5447 16.6069 18.3077C16.2502 18.9183 16.0631 19.6131 16.0649 20.3202C16.0649 21.7072 16.7694 22.9324 17.8451 23.6498C17.2097 23.6297 16.5884 23.4575 16.0333 23.1477V23.1989C16.0327 24.1229 16.3521 25.0185 16.9372 25.7336C17.5222 26.4487 18.3369 26.9392 19.2426 27.1217C18.6536 27.2832 18.0353 27.3071 17.4356 27.1915C17.6911 27.9864 18.1884 28.6816 18.8582 29.1801C19.528 29.6786 20.3367 29.9554 21.1715 29.9719C20.3416 30.6233 19.3915 31.1046 18.3754 31.3883C17.3593 31.672 16.2973 31.7526 15.25 31.6253C17.0786 32.8021 19.2075 33.4269 21.3819 33.425C28.7416 33.425 32.7667 27.328 32.7667 22.0403C32.7667 21.8697 32.7602 21.6942 32.7537 21.5227C33.5358 20.9564 34.2116 20.2564 34.75 19.4549V19.4541Z" fill="#111111"/>
</svg>
